<?xml version="1.0" encoding="UTF-8"?>
<svg width="128" height="128" viewBox="0 0 128 128" fill="none" xmlns="http://www.w3.org/2000/svg">
  <defs>
    <linearGradient id="g" x1="0" y1="0" x2="128" y2="128" gradientUnits="userSpaceOnUse">
      <stop offset="0" stop-color="#ff7a59"/>
      <stop offset="1" stop-color="#ffb86b"/>
    </linearGradient>
    <filter id="shadow" x="-20%" y="-20%" width="140%" height="140%">
      <feDropShadow dx="0" dy="2" stdDeviation="3" flood-color="#000" flood-opacity="0.2"/>
    </filter>
  </defs>
  <!-- Rounded background -->
  <rect x="8" y="8" width="112" height="112" rx="24" fill="url(#g)"/>

  <!-- Chef hat icon -->
  <g filter="url(#shadow)" transform="translate(0, 2)">
    <path d="M38 54c-6.627 0-12-5.373-12-12 0-6.284 4.815-11.448 11-11.96C39.27 23.783 44.198 20 50 20c4.418 0 8.37 1.79 11.25 4.69C64.91 22.965 69.302 21 74 21c10.493 0 19 7.611 19 17 0 7.18-4.492 13.29-10.86 15.68-.86.33-1.14.77-1.14 1.32V74c0 3.314-2.686 6-6 6H46c-3.314 0-6-2.686-6-6V55.68c0-.55-.281-.99-1.14-1.32C36.44 53.16 37.24 54 38 54z" fill="#fff"/>
    <rect x="44" y="74" width="40" height="8" rx="4" fill="#fff"/>
  </g>

  <!-- Whisk overlay -->
  <g transform="translate(6, 6) rotate(-12 64 64)" opacity="0.95">
    <path d="M86 88c-6 6-14 8-18 4s-2-12 4-18l18-18c6-6 14-8 18-4s2 12-4 18l-18 18z" fill="#fff" fill-opacity="0.15"/>
    <path d="M98 58l-24 24" stroke="#fff" stroke-opacity="0.8" stroke-width="3" stroke-linecap="round"/>
    <path d="M93 53l-24 24" stroke="#fff" stroke-opacity="0.6" stroke-width="2.5" stroke-linecap="round"/>
    <path d="M103 63l-24 24" stroke="#fff" stroke-opacity="0.6" stroke-width="2.5" stroke-linecap="round"/>
  </g>
</svg>
